# xmcd CD database file
#
# Track frame offsets:
#	150
#	13757
#	49267
#	80984
#	106303
#	117932
#	155603
#	189896
#	218678
#	246805
#
# Disc length: 3750 seconds
#
# Revision: 0
# Processed by: cddbd v1.4PL0 Copyright (c) Steve Scherf et al.
# Submitted via: CDex 1.50Beta7
#
DISCID=830ea40a
DTITLE=Jack Maheu - Swing That Music
DYEAR=1999
DGENRE=Jazz
TTITLE0=The Fish Vendor
TTITLE1=Creole Love Call
TTITLE2=High Society
TTITLE3=The Moochie
TTITLE4=It's Alright With Me
TTITLE5=Blue Orleans
TTITLE6=Panama
TTITLE7=My Inspiration
TTITLE8=Old Fasioned Love
TTITLE9=Swing That Music
EXTD=YEAR: 1999
EXTT0=
EXTT1=
EXTT2=
EXTT3=
EXTT4=
EXTT5=
EXTT6=
EXTT7=
EXTT8=
EXTT9=
PLAYORDER=
